<?xml version="1.0" standalone="no"?>
<!DOCTYPE svg PUBLIC "-//W3C//DTD SVG 20010904//EN"
 "http://www.w3.org/TR/2001/REC-SVG-20010904/DTD/svg10.dtd">
<svg version="1.0" xmlns="http://www.w3.org/2000/svg"
 width="501.000000pt" height="501.000000pt" viewBox="0 0 501.000000 501.000000"
 preserveAspectRatio="xMidYMid meet">
<metadata>
Created by potrace 1.14, written by Peter Selinger 2001-2017
</metadata>
<g transform="translate(0.000000,501.000000) scale(0.100000,-0.100000)"
fill="#000000" stroke="none">
<path d="M2480 4477 c-14 -7 -315 -179 -670 -382 -355 -202 -663 -378 -685
-391 -149 -84 -341 -196 -349 -204 -4 -4 -8 -435 -8 -962 1 -1119 0 -1038 11
-1038 4 0 80 -41 167 -91 88 -51 179 -103 204 -117 25 -14 101 -57 170 -97 69
-40 145 -84 170 -98 25 -14 117 -67 205 -117 88 -51 178 -102 200 -114 22 -12
167 -95 323 -184 l282 -162 36 17 c19 10 290 164 601 343 312 179 578 331 592
338 14 7 134 75 266 151 l240 138 0 998 0 998 -30 17 c-96 55 -296 169 -330
189 -16 10 -51 30 -77 44 -27 15 -67 38 -90 51 -45 25 -339 194 -373 214 -49
29 -827 472 -828 472 -1 0 -13 -6 -27 -13z m499 -664 c256 -146 475 -271 486
-277 108 -58 243 -141 239 -145 -3 -3 -74 -45 -157 -93 l-152 -86 -45 26 c-25
14 -54 31 -65 36 -11 6 -191 109 -401 229 l-381 218 -446 -255 -447 -256 -155
88 c-85 48 -154 90 -152 94 2 9 1188 687 1201 688 4 0 218 -120 475 -267z
m-654 -905 l0 -303 -215 -123 c-118 -68 -238 -136 -265 -151 l-50 -28 0 303 0
302 260 150 c143 83 262 151 265 151 3 1 5 -135 5 -301z m616 156 c140 -80
258 -149 262 -153 8 -8 15 -611 7 -611 -3 0 -124 69 -270 153 l-265 152 -1
295 c0 265 1 310 10 310 1 0 117 -66 257 -146z m-1623 -96 c45 -26 86 -48 91
-48 32 0 34 -29 34 -525 0 -346 3 -498 11 -504 10 -7 629 -363 762 -437 27
-15 62 -36 79 -46 l30 -18 0 -180 c0 -99 -1 -180 -3 -180 -2 0 -161 91 -369
211 -18 11 -50 28 -70 40 -21 11 -63 35 -93 52 -30 18 -71 41 -91 52 -20 11
-158 90 -307 175 l-272 155 0 683 0 683 58 -32 c31 -18 94 -54 140 -81z m2569
-570 l-2 -682 -45 -28 c-25 -15 -54 -32 -65 -37 -11 -5 -87 -48 -168 -95 -82
-47 -150 -86 -153 -86 -2 0 -23 -12 -47 -27 -23 -14 -67 -40 -97 -56 -30 -16
-62 -36 -71 -43 -8 -8 -19 -14 -23 -14 -4 0 -35 -16 -69 -36 -34 -20 -87 -50
-117 -67 -30 -16 -62 -35 -70 -41 -8 -7 -40 -25 -70 -41 -30 -15 -67 -36 -82
-47 -14 -10 -29 -18 -32 -18 -3 0 -27 -13 -53 -28 l-48 -29 0 178 c0 105 4
182 10 188 6 5 53 34 105 64 52 30 223 127 380 217 157 90 310 177 340 194
l55 32 0 501 c0 276 2 504 5 506 9 9 305 177 312 177 3 0 5 -307 5 -682z
m-1096 -268 l237 -134 -252 -144 c-138 -79 -256 -146 -263 -149 -11 -5 -533
286 -533 297 0 3 44 29 98 58 53 29 104 57 112 62 26 17 191 110 195 110 2 0
30 16 61 34 56 34 58 35 83 17 14 -9 132 -77 262 -151z"/>
</g>
</svg>
